<svg xmlns="http://www.w3.org/2000/svg" width="274" height="263" viewBox="0 0 274 263" fill="none"><path d="M119.718 259.514L119.049 260.986H120.665H173.277H173.953L174.228 260.368L272.036 40.7416L272.126 40.5394V40.3182V2.18362V1.14299H271.085H124.884H123.843H83.2371H82.1965V2.18362V43.4961V44.5367V84.8086V85.8492H83.2371H123.843H124.884V84.8086V44.5367H213.338L215.869 48.193L119.718 259.514Z" fill="url(#paint0_linear_1_2452)" stroke="url(#paint1_linear_1_2452)" stroke-width="2.08127"></path><path d="M10.2476 110.544H0.520248V133.166C1.5867 133.166 9.05189 133.166 10.2476 133.166C19.6841 133.166 21.3969 126.25 21.3969 121.887C21.3969 117.525 19.8134 110.544 10.2476 110.544ZM10.2476 128.706C7.98544 128.706 6.30496 128.706 5.43241 128.706V115.036C5.43241 115.036 8.17934 115.036 10.2476 115.036C15.3214 115.036 16.2909 119.334 16.2909 121.887C16.2909 124.311 15.289 128.706 10.2476 128.706Z" fill="black"></path><path d="M27.9027 133.166V110.544H22.9905V133.166H27.9027Z" fill="black"></path><path d="M45.3699 110.577H37.1292L29.0499 133.166H34.1237L35.481 129.45H47.0181L48.3431 133.166H53.4492L45.3699 110.577ZM37.0645 124.958L40.6194 115.036H41.8797L45.4023 124.958H37.0645Z" fill="black"></path><path d="M63.6673 119.464C59.8863 118.85 58.5613 118.397 58.5613 117.202C58.5613 116.103 59.4338 114.745 63.2472 114.745C67.9331 114.745 68.6118 117.072 68.6118 118.623C70.3569 118.623 73.7825 118.623 73.7825 118.623C73.7825 115.198 72.0374 110.286 63.2472 110.286C55.8467 110.286 53.4875 113.97 53.4875 117.169C53.4875 121.306 56.5253 122.695 63.3118 123.697C67.7392 124.344 69.2905 124.634 69.2905 126.153C69.2905 127.898 67.7392 128.771 64.0228 128.771C61.082 128.771 58.0765 128.222 58.0765 124.828C55.2973 124.828 54.0369 124.828 53.0351 124.828C53.0351 126.994 53.0028 133.166 64.1521 133.166C70.777 133.166 74.5258 131.776 74.5258 126.153C74.5258 121.047 68.7411 120.304 63.6673 119.464Z" fill="black"></path><path d="M96.531 110.544H86.8036V133.166C87.8701 133.166 95.3353 133.166 96.531 133.166C105.968 133.166 107.68 126.25 107.68 121.887C107.68 117.525 106.097 110.544 96.531 110.544ZM96.531 128.706C94.2688 128.706 92.5884 128.706 91.7158 128.706V115.036C91.7158 115.036 94.4627 115.036 96.531 115.036C101.605 115.036 102.574 119.334 102.574 121.887C102.574 124.311 101.572 128.706 96.531 128.706Z" fill="black"></path><path d="M109.179 110.544V133.166H127.761V128.674H114.091V124.085H127.761V119.658H114.091V115.004H127.761V110.544H109.179Z" fill="black"></path><path d="M12.122 154.045V158.667H18.5854C17.9067 160.832 16 162.157 12.2513 162.157C8.40556 162.157 5.40009 160.186 5.40009 155.694C5.40009 151.202 8.40556 149.198 12.2513 149.198C15.3537 149.198 17.2604 150.07 18.1976 151.783H23.5945C22.7219 147.453 18.1329 144.189 12.2513 144.189C5.75557 144.189 0.520248 148.261 0.520248 155.694C0.520248 163.256 5.75557 167.166 12.2513 167.166C15.5799 167.166 17.7451 165.518 18.553 163.482H18.8116V167.004H23.7237V154.045H12.122Z" fill="black"></path><path d="M40.7938 144.577H32.553L24.4738 167.166H29.5476L30.9049 163.45H42.442L43.767 167.166H48.873L40.7938 144.577ZM32.4884 158.958L36.0433 149.036H37.3036L40.8261 158.958H32.4884Z" fill="black"></path><path d="M69.5293 152.106C69.5293 144.544 63.4861 144.544 60.7714 144.544C59.4464 144.544 55.8593 144.577 54.6636 144.577V144.544H49.7514V167.166H54.6636V159.636C55.6654 159.636 59.0263 159.636 59.8666 159.636C60.1574 159.636 60.5775 159.636 61.0623 159.636L64.7464 167.166H70.0787L65.7482 158.505C67.7842 157.439 69.5293 156.017 69.5293 152.106ZM60.3836 155.241C59.9635 155.241 55.73 155.241 54.6636 155.241V148.972C55.9562 148.972 59.5757 148.972 60.4806 148.972C61.9995 148.972 64.9726 148.972 64.9726 152.106C64.9726 155.273 61.8056 155.241 60.3836 155.241Z" fill="black"></path><path d="M86.05 144.577H77.8092L69.73 167.166H74.8038L76.1611 163.45H87.6982L89.0232 167.166H94.1292L86.05 144.577ZM77.7446 158.958L81.2994 149.036H82.5598L86.0823 158.958H77.7446Z" fill="black"></path><path d="M112.431 160.8H111.849L101.96 144.577H101.508V144.544H94.8829V167.166H99.795V150.943H100.344L110.266 167.166H117.343V144.544H112.431V160.8Z" fill="black"></path><path d="M119.12 149.036H127.652V167.166H132.564V149.036H141.128V144.544H119.12V149.036Z" fill="black"></path><path d="M147.797 167.166V144.544H142.885V167.166H147.797Z" fill="black"></path><path d="M165.264 144.577H157.023L148.944 167.166H154.018L155.375 163.45H166.912L168.237 167.166H173.343L165.264 144.577ZM156.959 158.958L160.514 149.036H161.774L165.296 158.958H156.959Z" fill="black"></path><path d="M9.12089 188.023C9.50264 187.249 10.6054 187.249 10.9872 188.023L13.0277 192.156C13.1792 192.463 13.4718 192.676 13.8103 192.725L18.3752 193.393C19.2284 193.517 19.5685 194.566 18.9508 195.168L15.6493 198.383C15.4039 198.623 15.2918 198.967 15.3497 199.305L16.1287 203.846C16.2745 204.697 15.3821 205.345 14.6186 204.943L10.5384 202.798C10.2352 202.638 9.8729 202.638 9.56967 202.798L5.48943 204.943C4.72599 205.345 3.8336 204.697 3.97941 203.846L4.75834 199.305C4.81626 198.967 4.70422 198.623 4.45877 198.383L1.15732 195.168C0.539607 194.566 0.879669 193.517 1.7329 193.393L6.29773 192.725C6.6363 192.676 6.92892 192.463 7.08037 192.156L9.12089 188.023Z" fill="#E7AA05"></path><path d="M40.3399 188.023C40.7217 187.249 41.8245 187.249 42.2062 188.023L44.2468 192.156C44.3982 192.463 44.6908 192.676 45.0294 192.725L49.5942 193.393C50.4475 193.517 50.7875 194.566 50.1698 195.168L46.8684 198.383C46.6229 198.623 46.5109 198.967 46.5688 199.305L47.3477 203.846C47.4935 204.697 46.6011 205.345 45.8377 204.943L41.7575 202.798C41.4542 202.638 41.0919 202.638 40.7887 202.798L36.7085 204.943C35.945 205.345 35.0526 204.697 35.1985 203.846L35.9774 199.305C36.0353 198.967 35.9233 198.623 35.6778 198.383L32.3764 195.168C31.7587 194.566 32.0987 193.517 32.9519 193.393L37.5168 192.725C37.8554 192.676 38.148 192.463 38.2994 192.156L40.3399 188.023Z" fill="#E7AA05"></path><path d="M71.559 188.023C71.9407 187.249 73.0435 187.249 73.4253 188.023L75.4658 192.156C75.6173 192.463 75.9099 192.676 76.2484 192.725L80.8133 193.393C81.6665 193.517 82.0066 194.566 81.3888 195.168L78.0874 198.383C77.8419 198.623 77.7299 198.967 77.7878 199.305L78.5668 203.846C78.7126 204.697 77.8202 205.345 77.0567 204.943L72.9765 202.798C72.6733 202.638 72.311 202.638 72.0078 202.798L67.9275 204.943C67.1641 205.345 66.2717 204.697 66.4175 203.846L67.1964 199.305C67.2544 198.967 67.1423 198.623 66.8969 198.383L63.5954 195.168C62.9777 194.566 63.3178 193.517 64.171 193.393L68.7358 192.725C69.0744 192.676 69.367 192.463 69.5185 192.156L71.559 188.023Z" fill="#E7AA05"></path><path d="M102.778 188.023C103.16 187.249 104.263 187.249 104.644 188.023L106.685 192.156C106.836 192.463 107.129 192.676 107.467 192.725L112.032 193.393C112.886 193.517 113.226 194.566 112.608 195.168L109.306 198.383C109.061 198.623 108.949 198.967 109.007 199.305L109.786 203.846C109.932 204.697 109.039 205.345 108.276 204.943L104.196 202.798C103.892 202.638 103.53 202.638 103.227 202.798L99.1466 204.943C98.3831 205.345 97.4907 204.697 97.6366 203.846L98.4155 199.305C98.4734 198.967 98.3614 198.623 98.1159 198.383L94.8145 195.168C94.1967 194.566 94.5368 193.517 95.39 193.393L99.9549 192.725C100.293 192.676 100.586 192.463 100.738 192.156L102.778 188.023Z" fill="#E7AA05"></path><path d="M133.997 188.023C134.379 187.249 135.482 187.249 135.863 188.023L137.904 192.156C138.055 192.463 138.348 192.676 138.686 192.725L143.251 193.393C144.105 193.517 144.445 194.566 143.827 195.168L140.525 198.383C140.28 198.623 140.168 198.967 140.226 199.305L141.005 203.846C141.151 204.697 140.258 205.345 139.495 204.943L135.415 202.798C135.111 202.638 134.749 202.638 134.446 202.798L130.366 204.943C129.602 205.345 128.71 204.697 128.856 203.846L129.634 199.305C129.692 198.967 129.58 198.623 129.335 198.383L126.033 195.168C125.416 194.566 125.756 193.517 126.609 193.393L131.174 192.725C131.512 192.676 131.805 192.463 131.956 192.156L133.997 188.023Z" fill="#E7AA05"></path><defs><linearGradient id="paint0_linear_1_2452" x1="257.202" y1="10.2648" x2="143.252" y2="245.448" gradientUnits="userSpaceOnUse"><stop stop-color="#2A03FF"></stop><stop offset="1" stop-color="#2309AF" stop-opacity="0"></stop></linearGradient><linearGradient id="paint1_linear_1_2452" x1="274.617" y1="0.799341" x2="161.892" y2="84.9222" gradientUnits="userSpaceOnUse"><stop stop-color="white"></stop><stop offset="1" stop-color="white" stop-opacity="0"></stop></linearGradient></defs></svg>